<svg width="25" height="25" viewBox="0 0 25 25" fill="none" xmlns="http://www.w3.org/2000/svg">
<path fill-rule="evenodd" clip-rule="evenodd" d="M6.41351 21.7813C8.7034 23.8315 11.3487 25 14.1699 25C18.3653 25 22.1738 22.4084 25 18.1873C23.8067 16.4055 22.4388 14.9131 20.939 13.7849L18.5311 15.1097C19.0486 15.9972 19.3501 17.0534 19.3501 18.1873C19.3501 21.3369 17.0313 23.8897 14.1699 23.8897C11.9466 23.8897 10.0512 22.3475 9.31636 20.1822L6.41351 21.7799V21.7813ZM12.3875 18.4932C12.4453 18.9072 12.6212 19.2921 12.8937 19.5925C13.2316 19.9649 13.6913 20.1739 14.1699 20.1726C15.166 20.1726 15.9737 19.2837 15.9737 18.1873C15.9737 17.6487 15.779 17.1601 15.4624 16.8015L12.3887 18.4932H12.3875Z" fill="#2BAD72"/>
<path d="M7.0693 18.1428L24.6208 8.84366L20.7633 0L18.7711 7.81504L16.377 2.32446L14.3836 10.1395L11.9894 4.64887L9.996 12.4639L7.60189 6.97329L5.60847 14.7883L3.21435 9.29776L0 21.889L4.38753 19.5646L7.0693 18.1442V18.1428Z" fill="#2BAD72"/>
</svg>
