<svg width="25" height="18" viewBox="0 0 25 18" fill="none" xmlns="http://www.w3.org/2000/svg">
<path d="M16.0986 0.767151C11.1637 0.767151 7.19878 4.43508 7.19878 8.91784C7.19878 13.4376 11.2029 17.0685 16.0976 17.0685C20.9922 17.0685 25 13.4006 25 8.91784C25 4.43508 20.9932 0.767151 16.0986 0.767151ZM16.0986 11.9558C14.2784 11.9558 12.7822 10.5849 12.7822 8.91784C12.7822 7.25073 14.2784 5.87988 16.0986 5.87988C17.9188 5.87988 19.4155 7.25073 19.4155 8.91784C19.3748 10.5849 17.9188 11.9558 16.0986 11.9558ZM7.19878 3.13529V14.9909H4.04542L0 3.13529H7.19878Z" fill="#8B3FFD"/>
</svg>
